<svg aria-hidden="true" style="position: absolute; width: 0; height: 0; overflow: hidden;" version="1.1" xmlns="http://www.w3.org/2000/svg" xmlns:xlink="http://www.w3.org/1999/xlink">
<defs>
<symbol id="arrow-arrows-forward-interface-multimedia-navigation-right_107957-2" viewBox="0 0 32 32">
<path d="M12.631 28.125c-0.518-0-0.937-0.42-0.937-0.938 0-0.259 0.105-0.493 0.275-0.663l10.893-10.893-10.893-10.893c-0.163-0.168-0.263-0.398-0.263-0.651 0-0.518 0.42-0.938 0.938-0.938 0.253 0 0.483 0.1 0.652 0.263l11.556 11.556c0.17 0.17 0.274 0.404 0.274 0.663s-0.105 0.493-0.274 0.663l-11.556 11.556c-0.17 0.17-0.404 0.274-0.663 0.274-0 0-0 0-0 0h0z"></path>
</symbol>
</defs>
</svg>
